# xmcd
#
# Track frame offsets: 
#        150
#        14996
#        30032
#        45589
#        60850
#        72298
#        87618
#        98367
#        151689
#        175417
#        189683
#        204044
#        219305
#        232186
#
# Disc length: 3272 seconds
#
# Revision: 2
# Processed by: cddbd v1.5.2PL0 Copyright (c) Steve Scherf et al.
# Submitted via: ExactAudioCopy v1.0b3
#
DISCID=ad0cc60e
DTITLE=Woody Herman - Woody Herman (Quadromania)_CD3
DYEAR=2005
DGENRE=Jazz
TTITLE0=Apple Honey
TTITLE1=Laura
TTITLE2=Happiness Is a Thing Called Joe
TTITLE3=Goosey Gander
TTITLE4=Good Earth
TTITLE5=Your Father's Moustache
TTITLE6=Blowin' Up a Storm
TTITLE7=Summer Sequence
TTITLE8=Lady Mcgowan's Dream
TTITLE9=Woodchoppers Ball
TTITLE10=Northwest Passage
TTITLE11=I've Got New For You
TTITLE12=The Goof And I
TTITLE13=Sidewalks of Cuba
EXTD=
EXTT0=
EXTT1=
EXTT2=
EXTT3=
EXTT4=
EXTT5=
EXTT6=
EXTT7=
EXTT8=
EXTT9=
EXTT10=
EXTT11=
EXTT12=
EXTT13=
PLAYORDER=
